<svg width="173" height="37" viewBox="0 0 173 37" fill="none" xmlns="http://www.w3.org/2000/svg">
<path d="M9.02561 10.9236C10.2875 8.82479 12.5023 8.63896 14.2759 10.5789C16.7546 13.2903 19.2059 16.0303 21.5746 18.8378C22.3937 19.8086 22.792 19.7875 23.6016 18.8258C25.9674 16.0147 28.4276 13.2823 30.8923 10.5564C32.7364 8.51674 35.2971 8.90243 36.2611 11.3143C36.5159 13.9114 36.3045 16.5151 36.374 19.1148C36.42 20.8314 36.304 22.55 36.401 24.2661C36.437 24.9022 36.2821 25.5419 35.9117 26.0598C35.2761 26.9489 34.373 27.3246 33.2486 27.1548C31.9018 26.9519 30.8868 25.7948 30.8174 24.23C30.7534 22.7849 30.8039 21.3348 30.4775 19.782C28.657 21.8217 26.8299 23.8559 25.0169 25.9025C23.3092 27.8305 21.6181 29.773 19.9175 31.7075C15.3209 36.9374 8.29099 37.4508 3.57242 33.5528C1.33358 31.703 0.107711 29.3287 0.121204 26.3503C0.146191 20.8224 0.111709 15.2944 0.131199 9.76699C0.150689 4.23503 4.17262 0.159189 9.69727 0.136649C18.2469 0.101586 26.7969 0.101586 35.3465 0.136649C41.0541 0.15969 45.0365 4.219 45.0425 9.92377C45.048 15.0831 44.8207 20.2549 45.1045 25.3986C45.4903 32.3972 39.0816 36.9289 32.6714 35.9642C30.1402 35.583 28.0138 34.4204 26.1633 32.6657C25.5611 32.0947 25.3272 31.4941 25.4776 30.7077C25.75 29.2851 26.2387 27.9783 27.2832 26.9109C27.7545 26.429 28.0888 26.2782 28.599 26.8633C29.1997 27.552 29.8634 28.1902 30.5385 28.8083C32.3621 30.4773 35.0697 30.7984 37.1961 29.5837C38.5149 28.8303 39.3015 27.7684 39.289 26.132C39.247 20.6967 39.2845 15.2604 39.262 9.82509C39.252 7.40323 37.8053 5.92407 35.4045 5.91856C26.8549 5.89752 18.3053 5.89502 9.75524 5.92056C7.37746 5.92757 5.91921 7.44631 5.90872 9.84713C5.88673 15.0064 5.91022 20.1657 5.88473 25.325C5.86724 28.8824 8.62882 31.0328 12.1115 30.1437C13.0245 29.9108 14.2979 29.1419 14.9436 28.4536C16.034 27.292 17.0959 26.1034 18.1669 24.9233C18.4438 24.6182 18.7471 24.3252 18.3353 23.8724C17.1034 22.5174 15.8926 21.1425 14.6732 19.7755C14.5053 19.8391 14.4983 19.8421 14.3304 19.9057C14.3304 21.4375 14.4088 22.9748 14.3084 24.5C14.2074 26.0363 13.07 27.0807 11.6368 27.1693C10.4329 27.2435 9.52236 26.7205 9.01012 25.6877C8.77474 25.2128 8.68878 24.6788 8.71877 24.1494C8.90617 20.8324 8.74276 17.5119 8.78324 14.194C8.79673 13.0965 8.80323 12.004 9.02611 10.9251L9.02561 10.9236Z" fill="white"/>
<path d="M65.4001 27.6104V7.88184H71.197L76.1462 20.7744H76.2283L81.1775 7.88184H86.9744V27.6104H82.5583V15.2783H82.449L77.6228 27.6104H74.7517L69.9255 15.2783H69.8162V27.6104H65.4001Z" fill="white"/>
<path d="M97.3508 27.9248C92.634 27.9248 89.7355 25.0811 89.7355 20.1729V20.1455C89.7355 15.3193 92.7297 12.4072 97.3508 12.4072C101.986 12.4072 104.966 15.292 104.966 20.1455V20.1729C104.966 25.0947 102.04 27.9248 97.3508 27.9248ZM97.3644 24.2471C99.0187 24.2471 100.058 22.7842 100.058 20.1729V20.1455C100.058 17.5752 98.9914 16.085 97.3508 16.085C95.7101 16.085 94.6574 17.5752 94.6574 20.1455V20.1729C94.6574 22.7979 95.6828 24.2471 97.3644 24.2471Z" fill="white"/>
<path d="M107.399 27.6104V12.7217H112.253V15.3604H112.348C112.758 13.4736 113.934 12.4072 115.684 12.4072C116.149 12.4072 116.573 12.4756 116.942 12.5986V16.7412C116.532 16.5771 115.971 16.4678 115.397 16.4678C113.36 16.4678 112.253 17.5889 112.253 19.708V27.6104H107.399Z" fill="white"/>
<path d="M123.066 27.8154C120.072 27.8154 118.035 25.915 118.035 23.3174V23.3037C118.035 20.501 120.195 18.9287 124.037 18.6689L127.428 18.4502V17.7119C127.428 16.6318 126.731 15.9619 125.377 15.9619C124.078 15.9619 123.313 16.5635 123.149 17.3291L123.121 17.4658H118.76L118.774 17.2881C119.006 14.3896 121.481 12.4072 125.623 12.4072C129.629 12.4072 132.268 14.4307 132.268 17.4521V27.6104H127.428V25.5049H127.332C126.484 26.9678 125.008 27.8154 123.066 27.8154ZM122.793 23.0029C122.793 23.9326 123.572 24.4658 124.762 24.4658C126.32 24.4658 127.428 23.5361 127.428 22.2783V21.2803L124.816 21.458C123.463 21.54 122.793 22.1006 122.793 22.9893V23.0029Z" fill="white"/>
<path d="M135.261 27.6104V7.88184H140.101V18.3682H140.197L144.462 12.7217H149.863L144.613 19.0928L150.177 27.6104H144.599L140.976 21.9775L140.101 23.0303V27.6104H135.261Z" fill="white"/>
<path d="M158.024 27.9248C153.308 27.9248 150.409 25.0811 150.409 20.1729V20.1455C150.409 15.3193 153.403 12.4072 158.024 12.4072C162.659 12.4072 165.64 15.292 165.64 20.1455V20.1729C165.64 25.0947 162.714 27.9248 158.024 27.9248ZM158.038 24.2471C159.692 24.2471 160.731 22.7842 160.731 20.1729V20.1455C160.731 17.5752 159.665 16.085 158.024 16.085C156.384 16.085 155.331 17.5752 155.331 20.1455V20.1729C155.331 22.7979 156.356 24.2471 158.038 24.2471Z" fill="white"/>
<path d="M170.274 27.8701C168.852 27.8701 167.717 26.7354 167.717 25.2998C167.717 23.8779 168.852 22.7432 170.274 22.7432C171.709 22.7432 172.844 23.8779 172.844 25.2998C172.844 26.7354 171.709 27.8701 170.274 27.8701Z" fill="white"/>
</svg>
