<svg width="20" height="20" viewBox="0 0 20 20" fill="none" xmlns="http://www.w3.org/2000/svg">
<path d="M6.01802 1.6819C5.14542 1.1368 4.00095 1.2271 3.26434 1.96371L2.01611 3.21194C0.12032 5.10774 1.90166 9.96276 5.99484 14.0559C10.088 18.1491 14.943 19.9305 16.8388 18.0347L18.0871 16.7864C18.9488 15.9247 18.926 14.5048 18.0362 13.615L16.1028 11.6816C15.213 10.7918 13.7931 10.769 12.9313 11.6307L12.6632 11.8988C12.198 12.3641 11.4474 12.4096 10.9235 11.9773C10.4182 11.5603 9.9149 11.1107 9.42747 10.6233C8.94004 10.1359 8.49049 9.63256 8.0735 9.12724C7.64119 8.60336 7.68671 7.85281 8.15196 7.38755L8.42007 7.11945C9.09941 6.44011 9.22903 5.41386 8.8175 4.57391" stroke="white" stroke-width="1.33333" stroke-linecap="round"/>
<path d="M15.4468 6.91093C15.2101 6.33357 14.8574 5.79265 14.3886 5.32385C13.9463 4.88152 13.4397 4.54252 12.899 4.30684" stroke="white" stroke-width="1.33333" stroke-linecap="round"/>
<path d="M12.8986 1.00569C14.1933 1.47471 15.408 2.22819 16.4459 3.26614C17.5099 4.33013 18.275 5.57989 18.7412 6.91109" stroke="white" stroke-width="1.33333" stroke-linecap="round"/>
</svg>
