<svg width="279" height="52" viewBox="0 0 279 52" fill="none" xmlns="http://www.w3.org/2000/svg">
<g filter="url(#filter0_d_43_6480)">
<path d="M5.91309 10.3982C5.91309 5.66311 10.4258 2.23115 14.9888 3.49603L119.374 32.4315C120.355 32.7036 121.261 33.1994 122.019 33.8799C126.521 37.9221 123.662 45.3876 117.611 45.3876H13.0756C9.11983 45.3876 5.91309 42.1808 5.91309 38.2251V10.3982Z" fill="white"/>
<path d="M6.27121 10.3982C6.27121 5.89987 10.5583 2.63951 14.8932 3.84114L119.278 32.7766C120.206 33.034 121.062 33.5028 121.779 34.1464C126.038 37.9691 123.334 45.0294 117.611 45.0294H13.0756C9.31762 45.0294 6.27121 41.983 6.27121 38.2251V10.3982Z" stroke="#E7E7E7" stroke-width="0.716247"/>
</g>
<g filter="url(#filter1_d_43_6480)">
<path d="M149.163 9.99259C149.163 5.38372 153.452 1.97446 157.942 3.01507L263.013 27.3673C264.713 27.7612 266.21 28.7618 267.224 30.1814L269.996 34.0616C273.383 38.8022 269.994 45.3876 264.168 45.3876H156.325C152.369 45.3876 149.163 42.1808 149.163 38.2251V9.99259Z" fill="white"/>
<path d="M149.521 9.99259C149.521 5.61416 153.596 2.37537 157.861 3.36395L262.932 27.7162C264.547 28.0904 265.969 29.041 266.933 30.3895L269.705 34.2698C272.922 38.7734 269.703 45.0294 264.168 45.0294H156.325C152.567 45.0294 149.521 41.983 149.521 38.2251V9.99259Z" stroke="#E7E7E7" stroke-width="0.716247"/>
</g>
<rect x="6.27121" y="1.33835" width="128.208" height="43.6911" rx="6.80435" fill="white" stroke="#E7E7E7" stroke-width="0.716247"/>
<rect x="149.521" y="1.33835" width="128.208" height="43.6911" rx="6.80435" fill="white" stroke="#E7E7E7" stroke-width="0.716247"/>
<path d="M50.9908 14.6044C50.8361 14.3064 50.6213 14.083 50.3462 13.934C50.0712 13.7793 49.7532 13.7019 49.3922 13.7019C48.9968 13.7019 48.6444 13.7907 48.335 13.9684C48.0256 14.146 47.7821 14.3981 47.6044 14.7247C47.4325 15.0513 47.3466 15.4295 47.3466 15.8592C47.3466 16.289 47.4325 16.67 47.6044 17.0024C47.7821 17.329 48.0256 17.5811 48.335 17.7587C48.6444 17.9364 48.9968 18.0252 49.3922 18.0252C49.9251 18.0252 50.3577 17.8762 50.69 17.5782C51.0224 17.2803 51.2258 16.8763 51.3003 16.3663H49.057V15.5842H52.3488V16.3492C52.2858 16.8133 52.1196 17.2402 51.8503 17.6298C51.5868 18.0194 51.2401 18.3317 50.8103 18.5667C50.3863 18.7959 49.9136 18.9105 49.3922 18.9105C48.8306 18.9105 48.3178 18.7815 47.8537 18.5237C47.3895 18.2601 47.02 17.8963 46.7449 17.4321C46.4756 16.968 46.341 16.4437 46.341 15.8592C46.341 15.2748 46.4756 14.7505 46.7449 14.2864C47.02 13.8222 47.3895 13.4612 47.8537 13.2034C48.3235 12.9398 48.8364 12.808 49.3922 12.808C50.0282 12.808 50.5926 12.9656 51.0854 13.2808C51.5839 13.5902 51.9449 14.0314 52.1683 14.6044H50.9908ZM54.2951 13.6761V15.4295H56.3579V16.2288H54.2951V18.0596H56.6157V18.8589H53.3152V12.8768H56.6157V13.6761H54.2951ZM61.6817 12.8854V13.6847H60.0916V18.8589H59.1118V13.6847H57.5131V12.8854H61.6817ZM65.8865 12.8854V18.8589H64.9067V12.8854H65.8865ZM71.0321 12.8854V13.6847H69.442V18.8589H68.4622V13.6847H66.8635V12.8854H71.0321ZM76.9817 18.9191C76.4259 18.9191 75.913 18.7901 75.4432 18.5323C74.9791 18.2687 74.6095 17.9048 74.3344 17.4407C74.0651 16.9709 73.9305 16.4437 73.9305 15.8592C73.9305 15.2748 74.0651 14.7505 74.3344 14.2864C74.6095 13.8222 74.9791 13.4612 75.4432 13.2034C75.913 12.9398 76.4259 12.808 76.9817 12.808C77.5432 12.808 78.056 12.9398 78.5202 13.2034C78.99 13.4612 79.3596 13.8222 79.6289 14.2864C79.8982 14.7505 80.0329 15.2748 80.0329 15.8592C80.0329 16.4437 79.8982 16.9709 79.6289 17.4407C79.3596 17.9048 78.99 18.2687 78.5202 18.5323C78.056 18.7901 77.5432 18.9191 76.9817 18.9191ZM76.9817 18.0681C77.377 18.0681 77.7294 17.9793 78.0389 17.8017C78.3483 17.6183 78.5889 17.3605 78.7608 17.0282C78.9385 16.6901 79.0273 16.3005 79.0273 15.8592C79.0273 15.418 78.9385 15.0313 78.7608 14.6989C78.5889 14.3666 78.3483 14.1116 78.0389 13.934C77.7294 13.7563 77.377 13.6675 76.9817 13.6675C76.5863 13.6675 76.2339 13.7563 75.9245 13.934C75.6151 14.1116 75.3716 14.3666 75.1939 14.6989C75.022 15.0313 74.9361 15.418 74.9361 15.8592C74.9361 16.3005 75.022 16.6901 75.1939 17.0282C75.3716 17.3605 75.6151 17.6183 75.9245 17.8017C76.2339 17.9793 76.5863 18.0681 76.9817 18.0681ZM85.9048 18.8589H84.925L81.9769 14.3981V18.8589H80.9971V12.8768H81.9769L84.925 17.329V12.8768H85.9048V18.8589Z" fill="black"/>
<path d="M191.868 12.8854C192.504 12.8854 193.059 13.0086 193.535 13.255C194.016 13.4956 194.386 13.8452 194.644 14.3036C194.907 14.7562 195.039 15.2862 195.039 15.8936C195.039 16.501 194.907 17.0282 194.644 17.4751C194.386 17.922 194.016 18.2658 193.535 18.5065C193.059 18.7414 192.504 18.8589 191.868 18.8589H189.917V12.8854H191.868ZM191.868 18.0596C192.567 18.0596 193.102 17.8705 193.475 17.4923C193.847 17.1141 194.034 16.5812 194.034 15.8936C194.034 15.2003 193.847 14.6588 193.475 14.2692C193.102 13.8795 192.567 13.6847 191.868 13.6847H190.896V18.0596H191.868ZM198.064 18.9362C197.618 18.9362 197.214 18.836 196.853 18.6354C196.492 18.4291 196.208 18.1426 196.002 17.7759C195.795 17.4035 195.692 16.9737 195.692 16.4867C195.692 16.0054 195.798 15.5785 196.01 15.206C196.222 14.8336 196.512 14.5471 196.878 14.3465C197.245 14.146 197.655 14.0457 198.107 14.0457C198.56 14.0457 198.97 14.146 199.337 14.3465C199.703 14.5471 199.993 14.8336 200.205 15.206C200.417 15.5785 200.523 16.0054 200.523 16.4867C200.523 16.968 200.414 17.3949 200.196 17.7673C199.978 18.1398 199.68 18.4291 199.302 18.6354C198.93 18.836 198.517 18.9362 198.064 18.9362ZM198.064 18.0853C198.317 18.0853 198.552 18.0252 198.769 17.9048C198.993 17.7845 199.173 17.604 199.311 17.3634C199.448 17.1227 199.517 16.8305 199.517 16.4867C199.517 16.1429 199.451 15.8535 199.319 15.6186C199.188 15.3779 199.013 15.1974 198.795 15.0771C198.577 14.9568 198.342 14.8966 198.09 14.8966C197.838 14.8966 197.603 14.9568 197.385 15.0771C197.173 15.1974 197.004 15.3779 196.878 15.6186C196.752 15.8535 196.689 16.1429 196.689 16.4867C196.689 16.9966 196.818 17.392 197.076 17.6728C197.34 17.9478 197.669 18.0853 198.064 18.0853ZM207.852 14.1231L206.382 18.8589H205.35L204.396 15.3607L203.442 18.8589H202.411L200.933 14.1231H201.93L202.918 17.9306L203.924 14.1231H204.946L205.909 17.9134L206.889 14.1231H207.852ZM210.973 14.0457C211.346 14.0457 211.678 14.1231 211.97 14.2778C212.268 14.4325 212.5 14.6617 212.666 14.9654C212.833 15.2691 212.916 15.6358 212.916 16.0655V18.8589H211.944V16.2116C211.944 15.7876 211.838 15.4639 211.626 15.2404C211.414 15.0112 211.125 14.8966 210.758 14.8966C210.392 14.8966 210.099 15.0112 209.882 15.2404C209.67 15.4639 209.564 15.7876 209.564 16.2116V18.8589H208.584V14.1231H209.564V14.6645C209.724 14.4697 209.927 14.3179 210.174 14.209C210.426 14.1001 210.692 14.0457 210.973 14.0457ZM215.145 12.4986V18.8589H214.165V12.4986H215.145ZM218.486 18.9362C218.039 18.9362 217.635 18.836 217.274 18.6354C216.913 18.4291 216.629 18.1426 216.423 17.7759C216.217 17.4035 216.114 16.9737 216.114 16.4867C216.114 16.0054 216.22 15.5785 216.432 15.206C216.644 14.8336 216.933 14.5471 217.3 14.3465C217.667 14.146 218.076 14.0457 218.529 14.0457C218.982 14.0457 219.391 14.146 219.758 14.3465C220.125 14.5471 220.414 14.8336 220.626 15.206C220.838 15.5785 220.944 16.0054 220.944 16.4867C220.944 16.968 220.835 17.3949 220.617 17.7673C220.4 18.1398 220.102 18.4291 219.724 18.6354C219.351 18.836 218.939 18.9362 218.486 18.9362ZM218.486 18.0853C218.738 18.0853 218.973 18.0252 219.191 17.9048C219.414 17.7845 219.595 17.604 219.732 17.3634C219.87 17.1227 219.938 16.8305 219.938 16.4867C219.938 16.1429 219.873 15.8535 219.741 15.6186C219.609 15.3779 219.434 15.1974 219.216 15.0771C218.999 14.9568 218.764 14.8966 218.512 14.8966C218.26 14.8966 218.025 14.9568 217.807 15.0771C217.595 15.1974 217.426 15.3779 217.3 15.6186C217.174 15.8535 217.111 16.1429 217.111 16.4867C217.111 16.9966 217.24 17.392 217.498 17.6728C217.761 17.9478 218.091 18.0853 218.486 18.0853ZM221.586 16.4695C221.586 15.9939 221.683 15.5727 221.878 15.206C222.079 14.8393 222.348 14.5557 222.686 14.3551C223.03 14.1488 223.408 14.0457 223.821 14.0457C224.193 14.0457 224.517 14.1202 224.792 14.2692C225.073 14.4124 225.296 14.5929 225.462 14.8107V14.1231H226.451V18.8589H225.462V18.1541C225.296 18.3776 225.07 18.5638 224.783 18.7128C224.497 18.8618 224.17 18.9362 223.804 18.9362C223.397 18.9362 223.024 18.8331 222.686 18.6268C222.348 18.4148 222.079 18.1226 221.878 17.7501C221.683 17.372 221.586 16.9451 221.586 16.4695ZM225.462 16.4867C225.462 16.1601 225.394 15.8764 225.256 15.6358C225.124 15.3951 224.95 15.2118 224.732 15.0857C224.514 14.9596 224.279 14.8966 224.027 14.8966C223.775 14.8966 223.54 14.9596 223.322 15.0857C223.105 15.206 222.927 15.3865 222.789 15.6272C222.658 15.8621 222.592 16.1429 222.592 16.4695C222.592 16.7961 222.658 17.0826 222.789 17.329C222.927 17.5754 223.105 17.7645 223.322 17.8963C223.546 18.0223 223.781 18.0853 224.027 18.0853C224.279 18.0853 224.514 18.0223 224.732 17.8963C224.95 17.7702 225.124 17.5868 225.256 17.3462C225.394 17.0998 225.462 16.8133 225.462 16.4867ZM227.411 16.4695C227.411 15.9939 227.509 15.5727 227.703 15.206C227.904 14.8393 228.173 14.5557 228.511 14.3551C228.855 14.1488 229.236 14.0457 229.654 14.0457C229.964 14.0457 230.268 14.1145 230.566 14.252C230.869 14.3838 231.11 14.5614 231.288 14.7849V12.4986H232.276V18.8589H231.288V18.1455C231.127 18.3747 230.904 18.5638 230.617 18.7128C230.336 18.8618 230.013 18.9362 229.646 18.9362C229.233 18.9362 228.855 18.8331 228.511 18.6268C228.173 18.4148 227.904 18.1226 227.703 17.7501C227.509 17.372 227.411 16.9451 227.411 16.4695ZM231.288 16.4867C231.288 16.1601 231.219 15.8764 231.081 15.6358C230.949 15.3951 230.775 15.2118 230.557 15.0857C230.339 14.9596 230.104 14.8966 229.852 14.8966C229.6 14.8966 229.365 14.9596 229.147 15.0857C228.93 15.206 228.752 15.3865 228.614 15.6272C228.483 15.8621 228.417 16.1429 228.417 16.4695C228.417 16.7961 228.483 17.0826 228.614 17.329C228.752 17.5754 228.93 17.7645 229.147 17.8963C229.371 18.0223 229.606 18.0853 229.852 18.0853C230.104 18.0853 230.339 18.0223 230.557 17.8963C230.775 17.7702 230.949 17.5868 231.081 17.3462C231.219 17.0998 231.288 16.8133 231.288 16.4867ZM237.85 18.9362C237.403 18.9362 236.999 18.836 236.638 18.6354C236.277 18.4291 235.993 18.1426 235.787 17.7759C235.581 17.4035 235.478 16.9737 235.478 16.4867C235.478 16.0054 235.584 15.5785 235.796 15.206C236.008 14.8336 236.297 14.5471 236.664 14.3465C237.03 14.146 237.44 14.0457 237.893 14.0457C238.345 14.0457 238.755 14.146 239.122 14.3465C239.489 14.5471 239.778 14.8336 239.99 15.206C240.202 15.5785 240.308 16.0054 240.308 16.4867C240.308 16.968 240.199 17.3949 239.981 17.7673C239.764 18.1398 239.466 18.4291 239.087 18.6354C238.715 18.836 238.302 18.9362 237.85 18.9362ZM237.85 18.0853C238.102 18.0853 238.337 18.0252 238.555 17.9048C238.778 17.7845 238.959 17.604 239.096 17.3634C239.234 17.1227 239.302 16.8305 239.302 16.4867C239.302 16.1429 239.236 15.8535 239.105 15.6186C238.973 15.3779 238.798 15.1974 238.58 15.0771C238.363 14.9568 238.128 14.8966 237.876 14.8966C237.623 14.8966 237.389 14.9568 237.171 15.0771C236.959 15.1974 236.79 15.3779 236.664 15.6186C236.538 15.8535 236.475 16.1429 236.475 16.4867C236.475 16.9966 236.604 17.392 236.861 17.6728C237.125 17.9478 237.454 18.0853 237.85 18.0853ZM243.666 14.0457C244.038 14.0457 244.371 14.1231 244.663 14.2778C244.961 14.4325 245.193 14.6617 245.359 14.9654C245.525 15.2691 245.608 15.6358 245.608 16.0655V18.8589H244.637V16.2116C244.637 15.7876 244.531 15.4639 244.319 15.2404C244.107 15.0112 243.818 14.8966 243.451 14.8966C243.084 14.8966 242.792 15.0112 242.574 15.2404C242.362 15.4639 242.256 15.7876 242.256 16.2116V18.8589H241.277V14.1231H242.256V14.6645C242.417 14.4697 242.62 14.3179 242.867 14.209C243.119 14.1001 243.385 14.0457 243.666 14.0457Z" fill="black"/>
<path d="M53.1783 25.8787C52.972 25.5005 52.6883 25.2125 52.3274 25.0149C51.9664 24.8172 51.5452 24.7183 51.0639 24.7183C50.531 24.7183 50.0583 24.8387 49.6457 25.0793C49.2332 25.32 48.9109 25.6638 48.6788 26.1107C48.4467 26.5577 48.3307 27.0734 48.3307 27.6578C48.3307 28.2595 48.4467 28.7837 48.6788 29.2307C48.9195 29.6776 49.2504 30.0214 49.6715 30.2621C50.0927 30.5027 50.5826 30.6231 51.1413 30.6231C51.8288 30.6231 52.3918 30.4426 52.8302 30.0816C53.2685 29.712 53.5564 29.2006 53.694 28.5474H50.5998V27.1679H55.4731V28.7408C55.3528 29.3682 55.0949 29.9484 54.6996 30.4813C54.3042 31.0141 53.7928 31.4439 53.1654 31.7705C52.5465 32.0885 51.8503 32.2475 51.0768 32.2475C50.2087 32.2475 49.4223 32.0541 48.7175 31.6674C48.0213 31.272 47.4712 30.7262 47.0672 30.03C46.6719 29.3338 46.4742 28.5431 46.4742 27.6578C46.4742 26.7725 46.6719 25.9818 47.0672 25.2856C47.4712 24.5808 48.0213 24.035 48.7175 23.6483C49.4223 23.2529 50.2044 23.0552 51.0639 23.0552C52.0781 23.0552 52.9591 23.3045 53.7068 23.803C54.4546 24.2929 54.9703 24.9848 55.2539 25.8787H53.1783ZM59.98 32.2862C59.2924 32.2862 58.6736 32.1358 58.1235 31.835C57.5734 31.5255 57.1394 31.0915 56.8214 30.5328C56.512 29.9742 56.3573 29.3295 56.3573 28.599C56.3573 27.8684 56.5163 27.2238 56.8343 26.6651C57.1609 26.1064 57.6035 25.6767 58.1622 25.3758C58.7209 25.0664 59.344 24.9117 60.0316 24.9117C60.7192 24.9117 61.3423 25.0664 61.901 25.3758C62.4597 25.6767 62.898 26.1064 63.216 26.6651C63.5426 27.2238 63.706 27.8684 63.706 28.599C63.706 29.3295 63.5383 29.9742 63.2031 30.5328C62.8765 31.0915 62.4296 31.5255 61.8623 31.835C61.3037 32.1358 60.6762 32.2862 59.98 32.2862ZM59.98 30.7133C60.3066 30.7133 60.6118 30.636 60.8954 30.4813C61.1876 30.318 61.4197 30.0773 61.5916 29.7593C61.7635 29.4413 61.8494 29.0545 61.8494 28.599C61.8494 27.92 61.6689 27.4 61.308 27.039C60.9556 26.6694 60.5215 26.4846 60.0058 26.4846C59.4901 26.4846 59.0561 26.6694 58.7037 27.039C58.3599 27.4 58.188 27.92 58.188 28.599C58.188 29.278 58.3556 29.8023 58.6908 30.1718C59.0346 30.5328 59.4643 30.7133 59.98 30.7133ZM68.2015 32.2862C67.5139 32.2862 66.8951 32.1358 66.345 31.835C65.7949 31.5255 65.3609 31.0915 65.0428 30.5328C64.7334 29.9742 64.5787 29.3295 64.5787 28.599C64.5787 27.8684 64.7377 27.2238 65.0557 26.6651C65.3823 26.1064 65.825 25.6767 66.3837 25.3758C66.9423 25.0664 67.5655 24.9117 68.2531 24.9117C68.9407 24.9117 69.5638 25.0664 70.1225 25.3758C70.6811 25.6767 71.1195 26.1064 71.4375 26.6651C71.7641 27.2238 71.9274 27.8684 71.9274 28.599C71.9274 29.3295 71.7598 29.9742 71.4246 30.5328C71.098 31.0915 70.6511 31.5255 70.0838 31.835C69.5251 32.1358 68.8977 32.2862 68.2015 32.2862ZM68.2015 30.7133C68.5281 30.7133 68.8332 30.636 69.1169 30.4813C69.4091 30.318 69.6411 30.0773 69.813 29.7593C69.9849 29.4413 70.0709 29.0545 70.0709 28.599C70.0709 27.92 69.8904 27.4 69.5294 27.039C69.177 26.6694 68.743 26.4846 68.2273 26.4846C67.7116 26.4846 67.2775 26.6694 66.9251 27.039C66.5813 27.4 66.4094 27.92 66.4094 28.599C66.4094 29.278 66.577 29.8023 66.9122 30.1718C67.256 30.5328 67.6858 30.7133 68.2015 30.7133ZM76.0491 24.9117C76.5819 24.9117 77.0504 25.0192 77.4543 25.234C77.8583 25.4403 78.1763 25.711 78.4084 26.0463V25.0277H80.2262V32.2217C80.2262 32.8835 80.093 33.4723 79.8265 33.988C79.5601 34.5123 79.1604 34.9249 78.6275 35.2257C78.0947 35.5351 77.45 35.6898 76.6937 35.6898C75.6795 35.6898 74.8458 35.4534 74.1925 34.9807C73.5479 34.508 73.1826 33.8634 73.0967 33.0469H74.8887C74.9833 33.3735 75.1853 33.6313 75.4947 33.8204C75.8127 34.0181 76.1952 34.1169 76.6421 34.1169C77.1664 34.1169 77.5919 33.9579 77.9185 33.6399C78.2451 33.3305 78.4084 32.8578 78.4084 32.2217V31.113C78.1763 31.4482 77.854 31.7275 77.4414 31.951C77.0375 32.1745 76.5734 32.2862 76.0491 32.2862C75.4474 32.2862 74.8973 32.1315 74.3988 31.8221C73.9003 31.5127 73.5049 31.0786 73.2127 30.5199C72.9291 29.9527 72.7873 29.3037 72.7873 28.5732C72.7873 27.8512 72.9291 27.2109 73.2127 26.6522C73.5049 26.0935 73.896 25.6638 74.3859 25.363C74.8844 25.0621 75.4388 24.9117 76.0491 24.9117ZM78.4084 28.599C78.4084 28.1606 78.3224 27.7867 78.1505 27.4773C77.9786 27.1593 77.7466 26.9186 77.4543 26.7553C77.1621 26.5834 76.8484 26.4975 76.5132 26.4975C76.178 26.4975 75.8686 26.5791 75.5849 26.7424C75.3013 26.9057 75.0692 27.1464 74.8887 27.4644C74.7168 27.7738 74.6309 28.1434 74.6309 28.5732C74.6309 29.0029 74.7168 29.3811 74.8887 29.7077C75.0692 30.0257 75.3013 30.2707 75.5849 30.4426C75.8772 30.6145 76.1866 30.7004 76.5132 30.7004C76.8484 30.7004 77.1621 30.6188 77.4543 30.4555C77.7466 30.2836 77.9786 30.0429 78.1505 29.7335C78.3224 29.4155 78.4084 29.0373 78.4084 28.599ZM88.6287 28.4442C88.6287 28.7021 88.6115 28.9342 88.5771 29.1404H83.3557C83.3986 29.6561 83.5791 30.0601 83.8971 30.3523C84.2151 30.6446 84.6062 30.7907 85.0703 30.7907C85.7408 30.7907 86.2178 30.5027 86.5014 29.9269H88.4482C88.2419 30.6145 87.8465 31.1817 87.2621 31.6287C86.6776 32.067 85.9599 32.2862 85.109 32.2862C84.4214 32.2862 83.8026 32.1358 83.2525 31.835C82.711 31.5255 82.2856 31.0915 81.9762 30.5328C81.6753 29.9742 81.5249 29.3295 81.5249 28.599C81.5249 27.8598 81.6753 27.2109 81.9762 26.6522C82.277 26.0935 82.6981 25.6638 83.2396 25.363C83.7811 25.0621 84.4042 24.9117 85.109 24.9117C85.788 24.9117 86.394 25.0578 86.9269 25.3501C87.4683 25.6423 87.8852 26.0591 88.1774 26.6006C88.4783 27.1335 88.6287 27.7481 88.6287 28.4442ZM86.7593 27.9286C86.7507 27.4644 86.5831 27.0948 86.2565 26.8198C85.9298 26.5362 85.5302 26.3943 85.0575 26.3943C84.6105 26.3943 84.2323 26.5319 83.9229 26.8069C83.6221 27.0734 83.4373 27.4472 83.3685 27.9286H86.7593ZM99.5804 25.956C99.5804 26.4373 99.4644 26.8886 99.2323 27.3097C99.0088 27.7309 98.6521 28.0704 98.1622 28.3282C97.6809 28.5861 97.0707 28.715 96.3315 28.715H94.8231V32.1702H93.0181V23.1712H96.3315C97.0277 23.1712 97.6207 23.2916 98.1107 23.5322C98.6006 23.7729 98.9659 24.1038 99.2065 24.5249C99.4558 24.9461 99.5804 25.4231 99.5804 25.956ZM96.2541 27.2581C96.7527 27.2581 97.1222 27.1464 97.3629 26.9229C97.6036 26.6909 97.7239 26.3686 97.7239 25.956C97.7239 25.0793 97.234 24.641 96.2541 24.641H94.8231V27.2581H96.2541ZM102.667 22.6298V32.1702H100.862V22.6298H102.667ZM103.986 28.5732C103.986 27.8512 104.128 27.2109 104.411 26.6522C104.704 26.0935 105.095 25.6638 105.585 25.363C106.083 25.0621 106.638 24.9117 107.248 24.9117C107.781 24.9117 108.245 25.0192 108.64 25.234C109.044 25.4489 109.366 25.7196 109.607 26.0463V25.0277H111.425V32.1702H109.607V31.1259C109.375 31.4611 109.053 31.7404 108.64 31.9639C108.236 32.1788 107.768 32.2862 107.235 32.2862C106.633 32.2862 106.083 32.1315 105.585 31.8221C105.095 31.5127 104.704 31.0786 104.411 30.5199C104.128 29.9527 103.986 29.3037 103.986 28.5732ZM109.607 28.599C109.607 28.1606 109.521 27.7867 109.349 27.4773C109.177 27.1593 108.945 26.9186 108.653 26.7553C108.361 26.5834 108.047 26.4975 107.712 26.4975C107.377 26.4975 107.067 26.5791 106.784 26.7424C106.5 26.9057 106.268 27.1464 106.087 27.4644C105.916 27.7738 105.83 28.1434 105.83 28.5732C105.83 29.0029 105.916 29.3811 106.087 29.7077C106.268 30.0257 106.5 30.2707 106.784 30.4426C107.076 30.6145 107.385 30.7004 107.712 30.7004C108.047 30.7004 108.361 30.6188 108.653 30.4555C108.945 30.2836 109.177 30.0429 109.349 29.7335C109.521 29.4155 109.607 29.0373 109.607 28.599ZM120.021 25.0277L115.599 35.548H113.678L115.225 31.9897L112.363 25.0277H114.387L116.23 30.0171L118.1 25.0277H120.021Z" fill="black"/>
<path d="M195.68 30.4555H192.095L191.502 32.1702H189.607L192.843 23.1583H194.945L198.181 32.1702H196.273L195.68 30.4555ZM195.19 29.0115L193.887 25.2469L192.585 29.0115H195.19ZM201.195 26.0591C201.427 25.7325 201.745 25.4618 202.149 25.2469C202.562 25.0235 203.03 24.9117 203.554 24.9117C204.165 24.9117 204.715 25.0621 205.205 25.363C205.703 25.6638 206.094 26.0935 206.378 26.6522C206.67 27.2023 206.816 27.8426 206.816 28.5732C206.816 29.3037 206.67 29.9527 206.378 30.5199C206.094 31.0786 205.703 31.5127 205.205 31.8221C204.715 32.1315 204.165 32.2862 203.554 32.2862C203.03 32.2862 202.566 32.1788 202.162 31.9639C201.767 31.749 201.444 31.4783 201.195 31.1517V35.5738H199.39V25.0277H201.195V26.0591ZM204.973 28.5732C204.973 28.1434 204.882 27.7738 204.702 27.4644C204.53 27.1464 204.298 26.9057 204.006 26.7424C203.722 26.5791 203.413 26.4975 203.077 26.4975C202.751 26.4975 202.441 26.5834 202.149 26.7553C201.866 26.9186 201.634 27.1593 201.453 27.4773C201.281 27.7953 201.195 28.1692 201.195 28.599C201.195 29.0287 201.281 29.4026 201.453 29.7206C201.634 30.0386 201.866 30.2836 202.149 30.4555C202.441 30.6188 202.751 30.7004 203.077 30.7004C203.413 30.7004 203.722 30.6145 204.006 30.4426C204.298 30.2707 204.53 30.0257 204.702 29.7077C204.882 29.3897 204.973 29.0115 204.973 28.5732ZM209.933 26.0591C210.165 25.7325 210.483 25.4618 210.887 25.2469C211.299 25.0235 211.768 24.9117 212.292 24.9117C212.902 24.9117 213.452 25.0621 213.942 25.363C214.441 25.6638 214.832 26.0935 215.116 26.6522C215.408 27.2023 215.554 27.8426 215.554 28.5732C215.554 29.3037 215.408 29.9527 215.116 30.5199C214.832 31.0786 214.441 31.5127 213.942 31.8221C213.452 32.1315 212.902 32.2862 212.292 32.2862C211.768 32.2862 211.304 32.1788 210.9 31.9639C210.504 31.749 210.182 31.4783 209.933 31.1517V35.5738H208.128V25.0277H209.933V26.0591ZM213.71 28.5732C213.71 28.1434 213.62 27.7738 213.44 27.4644C213.268 27.1464 213.036 26.9057 212.743 26.7424C212.46 26.5791 212.15 26.4975 211.815 26.4975C211.489 26.4975 211.179 26.5834 210.887 26.7553C210.603 26.9186 210.371 27.1593 210.191 27.4773C210.019 27.7953 209.933 28.1692 209.933 28.599C209.933 29.0287 210.019 29.4026 210.191 29.7206C210.371 30.0386 210.603 30.2836 210.887 30.4555C211.179 30.6188 211.489 30.7004 211.815 30.7004C212.15 30.7004 212.46 30.6145 212.743 30.4426C213.036 30.2707 213.268 30.0257 213.44 29.7077C213.62 29.3897 213.71 29.0115 213.71 28.5732ZM219.973 32.2604C219.345 32.2604 218.778 32.153 218.271 31.9381C217.772 31.7232 217.377 31.4138 217.085 31.0098C216.792 30.6059 216.642 30.1289 216.633 29.5788H218.567C218.593 29.9484 218.722 30.2406 218.954 30.4555C219.195 30.6703 219.521 30.7778 219.934 30.7778C220.355 30.7778 220.686 30.6789 220.927 30.4813C221.167 30.275 221.288 30.0085 221.288 29.6819C221.288 29.4155 221.206 29.1963 221.043 29.0244C220.879 28.8525 220.673 28.7193 220.424 28.6247C220.183 28.5216 219.848 28.4099 219.418 28.2895C218.834 28.1176 218.357 27.95 217.987 27.7867C217.626 27.6148 217.312 27.3613 217.046 27.0261C216.788 26.6823 216.659 26.2267 216.659 25.6595C216.659 25.1266 216.792 24.6625 217.059 24.2671C217.325 23.8717 217.699 23.5709 218.181 23.3646C218.662 23.1497 219.212 23.0423 219.831 23.0423C220.759 23.0423 221.511 23.2701 222.087 23.7256C222.671 24.1725 222.994 24.8 223.054 25.6079H221.068C221.051 25.2985 220.918 25.0449 220.669 24.8473C220.428 24.641 220.106 24.5378 219.702 24.5378C219.349 24.5378 219.066 24.6281 218.851 24.8086C218.645 24.9891 218.542 25.2512 218.542 25.595C218.542 25.8357 218.619 26.0377 218.774 26.201C218.937 26.3557 219.135 26.4846 219.367 26.5877C219.607 26.6823 219.943 26.794 220.372 26.9229C220.957 27.0948 221.434 27.2667 221.803 27.4386C222.173 27.6105 222.491 27.8684 222.757 28.2122C223.024 28.556 223.157 29.0072 223.157 29.5659C223.157 30.0472 223.032 30.4941 222.783 30.9067C222.534 31.3193 222.169 31.6502 221.687 31.8994C221.206 32.1401 220.634 32.2604 219.973 32.2604ZM226.823 26.5104V29.9656C226.823 30.2062 226.879 30.3824 226.991 30.4941C227.111 30.5973 227.309 30.6489 227.584 30.6489H228.422V32.1702H227.287C225.766 32.1702 225.006 31.431 225.006 29.9527V26.5104H224.155V25.0277H225.006V23.2615H226.823V25.0277H228.422V26.5104H226.823ZM232.892 32.2862C232.204 32.2862 231.585 32.1358 231.035 31.835C230.485 31.5255 230.051 31.0915 229.733 30.5328C229.424 29.9742 229.269 29.3295 229.269 28.599C229.269 27.8684 229.428 27.2238 229.746 26.6651C230.073 26.1064 230.515 25.6767 231.074 25.3758C231.633 25.0664 232.256 24.9117 232.943 24.9117C233.631 24.9117 234.254 25.0664 234.813 25.3758C235.371 25.6767 235.81 26.1064 236.128 26.6651C236.454 27.2238 236.618 27.8684 236.618 28.599C236.618 29.3295 236.45 29.9742 236.115 30.5328C235.788 31.0915 235.341 31.5255 234.774 31.835C234.215 32.1358 233.588 32.2862 232.892 32.2862ZM232.892 30.7133C233.218 30.7133 233.523 30.636 233.807 30.4813C234.099 30.318 234.331 30.0773 234.503 29.7593C234.675 29.4413 234.761 29.0545 234.761 28.599C234.761 27.92 234.581 27.4 234.22 27.039C233.867 26.6694 233.433 26.4846 232.918 26.4846C232.402 26.4846 231.968 26.6694 231.615 27.039C231.272 27.4 231.1 27.92 231.1 28.599C231.1 29.278 231.267 29.8023 231.603 30.1718C231.946 30.5328 232.376 30.7133 232.892 30.7133ZM239.747 26.1365C239.979 25.7583 240.28 25.4618 240.649 25.2469C241.027 25.032 241.457 24.9246 241.938 24.9246V26.8198H241.461C240.894 26.8198 240.464 26.953 240.172 27.2195C239.888 27.4859 239.747 27.95 239.747 28.6118V32.1702H237.942V25.0277H239.747V26.1365ZM249.794 28.4442C249.794 28.7021 249.776 28.9342 249.742 29.1404H244.521C244.564 29.6561 244.744 30.0601 245.062 30.3523C245.38 30.6446 245.771 30.7907 246.235 30.7907C246.906 30.7907 247.383 30.5027 247.666 29.9269H249.613C249.407 30.6145 249.012 31.1817 248.427 31.6287C247.843 32.067 247.125 32.2862 246.274 32.2862C245.586 32.2862 244.968 32.1358 244.418 31.835C243.876 31.5255 243.451 31.0915 243.141 30.5328C242.84 29.9742 242.69 29.3295 242.69 28.599C242.69 27.8598 242.84 27.2109 243.141 26.6522C243.442 26.0935 243.863 25.6638 244.405 25.363C244.946 25.0621 245.569 24.9117 246.274 24.9117C246.953 24.9117 247.559 25.0578 248.092 25.3501C248.633 25.6423 249.05 26.0591 249.342 26.6006C249.643 27.1335 249.794 27.7481 249.794 28.4442ZM247.924 27.9286C247.916 27.4644 247.748 27.0948 247.421 26.8198C247.095 26.5362 246.695 26.3943 246.222 26.3943C245.776 26.3943 245.397 26.5319 245.088 26.8069C244.787 27.0734 244.602 27.4472 244.534 27.9286H247.924Z" fill="black"/>
<path d="M17.0776 14.387V31.9799C17.0778 32.0181 17.0891 32.0554 17.1104 32.0871C17.1316 32.1188 17.1617 32.1436 17.1969 32.1583C17.2322 32.1729 17.271 32.1769 17.3084 32.1696C17.3459 32.1623 17.3804 32.1442 17.4076 32.1174L26.568 23.1839L17.4076 14.2496C17.3804 14.2228 17.3459 14.2046 17.3084 14.1973C17.271 14.19 17.2322 14.194 17.1969 14.2087C17.1617 14.2233 17.1316 14.2481 17.1104 14.2798C17.0891 14.3115 17.0778 14.3488 17.0776 14.387ZM30.4089 19.5131L18.9229 13.185L18.9157 13.181C18.7179 13.0736 18.5298 13.3413 18.6919 13.4971L27.6956 22.1064L30.4089 19.5131ZM18.6928 32.8708C18.5298 33.0266 18.7179 33.2942 18.9166 33.1868L18.9238 33.1828L30.4089 26.8547L27.6956 24.2605L18.6928 32.8708ZM35.0457 22.0648L31.8382 20.2983L28.8224 23.1839L31.8382 26.0682L35.0457 24.3031C35.9182 23.8209 35.9182 22.5469 35.0457 22.0648Z" fill="#F48A00"/>
<path d="M175.843 33.3488C174.64 34.5152 173.326 34.3311 172.062 33.7785C170.723 33.2137 169.495 33.1892 168.083 33.7785C166.315 34.5398 165.382 34.3188 164.326 33.3488C158.334 27.1729 159.219 17.7678 166.021 17.424C167.678 17.5099 168.832 18.3326 169.802 18.4062C171.251 18.1116 172.639 17.2644 174.186 17.3749C176.04 17.5222 177.439 18.2589 178.36 19.5849C174.529 21.881 175.438 26.9273 178.95 28.3393C178.25 30.181 177.341 32.0105 175.831 33.3611L175.843 33.3488ZM169.68 17.3503C169.495 14.6123 171.718 12.3531 174.272 12.1321C174.628 15.2999 171.398 17.6573 169.68 17.3503Z" fill="#F48A00"/>
<defs>
<filter id="filter0_d_43_6480" x="0.18311" y="1.7992" width="125.472" height="49.3182" filterUnits="userSpaceOnUse" color-interpolation-filters="sRGB">
<feFlood flood-opacity="0" result="BackgroundImageFix"/>
<feColorMatrix in="SourceAlpha" type="matrix" values="0 0 0 0 0 0 0 0 0 0 0 0 0 0 0 0 0 0 127 0" result="hardAlpha"/>
<feOffset dx="-2.14874" dy="2.14874"/>
<feGaussianBlur stdDeviation="1.79062"/>
<feComposite in2="hardAlpha" operator="out"/>
<feColorMatrix type="matrix" values="0 0 0 0 0 0 0 0 0 0 0 0 0 0 0 0 0 0 0.06 0"/>
<feBlend mode="normal" in2="BackgroundImageFix" result="effect1_dropShadow_43_6480"/>
<feBlend mode="normal" in="SourceGraphic" in2="effect1_dropShadow_43_6480" result="shape"/>
</filter>
<filter id="filter1_d_43_6480" x="143.433" y="1.39441" width="129.343" height="49.723" filterUnits="userSpaceOnUse" color-interpolation-filters="sRGB">
<feFlood flood-opacity="0" result="BackgroundImageFix"/>
<feColorMatrix in="SourceAlpha" type="matrix" values="0 0 0 0 0 0 0 0 0 0 0 0 0 0 0 0 0 0 127 0" result="hardAlpha"/>
<feOffset dx="-2.14874" dy="2.14874"/>
<feGaussianBlur stdDeviation="1.79062"/>
<feComposite in2="hardAlpha" operator="out"/>
<feColorMatrix type="matrix" values="0 0 0 0 0 0 0 0 0 0 0 0 0 0 0 0 0 0 0.06 0"/>
<feBlend mode="normal" in2="BackgroundImageFix" result="effect1_dropShadow_43_6480"/>
<feBlend mode="normal" in="SourceGraphic" in2="effect1_dropShadow_43_6480" result="shape"/>
</filter>
</defs>
</svg>
