<svg width="21" height="22" viewBox="0 0 21 22" fill="none" xmlns="http://www.w3.org/2000/svg">
<path d="M20.4799 9.0059H19.6716V8.96426H10.6404V12.9781H16.3115C15.4841 15.3147 13.2609 16.992 10.6404 16.992C7.31539 16.992 4.61958 14.2962 4.61958 10.9712C4.61958 7.6462 7.31539 4.95039 10.6404 4.95039C12.1752 4.95039 13.5715 5.52939 14.6347 6.47516L17.473 3.63685C15.6808 1.96658 13.2835 0.936523 10.6404 0.936523C5.09874 0.936523 0.605713 5.42955 0.605713 10.9712C0.605713 16.5128 5.09874 21.0059 10.6404 21.0059C16.182 21.0059 20.675 16.5128 20.675 10.9712C20.675 10.2984 20.6058 9.6416 20.4799 9.0059Z" fill="#FFC107"/>
<path d="M1.7627 6.30056L5.05959 8.71841C5.95167 6.50978 8.11213 4.95039 10.6404 4.95039C12.1752 4.95039 13.5715 5.52939 14.6347 6.47516L17.473 3.63685C15.6808 1.96658 13.2835 0.936523 10.6404 0.936523C6.78605 0.936523 3.4435 3.11254 1.7627 6.30056Z" fill="#FF3D00"/>
<path d="M10.6404 21.0059C13.2323 21.0059 15.5875 20.014 17.3681 18.4009L14.2624 15.7728C13.2211 16.5647 11.9486 16.9931 10.6404 16.992C8.03038 16.992 5.81422 15.3278 4.97934 13.0052L1.70703 15.5265C3.36777 18.7762 6.74042 21.0059 10.6404 21.0059Z" fill="#4CAF50"/>
<path d="M20.4799 9.00588H19.6716V8.96423H10.6404V12.9781H16.3115C15.9157 14.0901 15.2028 15.0619 14.2609 15.7733L14.2624 15.7723L17.3681 18.4003C17.1484 18.6 20.675 15.9885 20.675 10.9712C20.675 10.2983 20.6058 9.64157 20.4799 9.00588Z" fill="#1976D2"/>
</svg>
