<svg width="27" height="27" viewBox="0 0 27 27" fill="none" xmlns="http://www.w3.org/2000/svg">
<ellipse cx="13.4268" cy="13.4212" rx="13.084" ry="13.084" fill="white"/>
<g clip-path="url(#clip0_56_6)">
<path d="M9.9353 11.2824C9.90155 11.3959 9.83985 11.5026 9.75019 11.5919L9.71645 11.626L9.68238 11.6597C9.39379 11.9483 8.92588 11.9483 8.63697 11.6597L7.31068 10.3334C7.02209 10.0448 7.02209 9.57692 7.31068 9.28801L7.37849 9.2202C7.46815 9.13054 7.57485 9.06916 7.68829 9.03542C7.94024 8.95925 8.22497 9.02128 8.4239 9.2202L9.75019 10.5465C9.94944 10.7458 10.0114 11.0305 9.9353 11.2824Z" fill="#E09B2D"/>
<path d="M9.93575 11.2824C9.68347 11.3583 9.39906 11.2962 9.19981 11.0973L7.87352 9.77103C7.6746 9.5721 7.61257 9.28737 7.68874 9.03542C7.94069 8.95925 8.22542 9.02128 8.42435 9.2202L9.75064 10.5465C9.94989 10.7458 10.0119 11.0305 9.93575 11.2824Z" fill="#F7B239"/>
<path d="M11.0865 12.9949H19.7573C19.7573 14.8235 18.7659 16.4207 17.2908 17.2778H12.3231C10.8484 16.4207 9.85693 14.8235 9.85693 12.9949H11.0865Z" fill="#F95428"/>
<path d="M12.7172 12.9949H11.0865H9.85693C9.85693 14.8235 10.8484 16.4207 12.3231 17.2778H15.1834C13.7087 16.4207 12.7172 14.8234 12.7172 12.9949Z" fill="#E54728"/>
<path d="M18.9689 17.2776V17.3464C18.9689 17.9296 18.4959 18.4027 17.9126 18.4027H11.6999C11.1166 18.4027 10.6436 17.9296 10.6436 17.3464V17.2776H12.3224H17.2901H18.9689Z" fill="#E6E6E6"/>
<path d="M12.5075 17.3464V17.2776H12.3224H10.6436V17.3464C10.6436 17.9296 11.1166 18.4027 11.6999 18.4027H13.5638C12.9806 18.4027 12.5075 17.9296 12.5075 17.3464Z" fill="#CCCCCC"/>
<path d="M16.919 16.8795C16.836 16.8795 16.7551 16.8366 16.7104 16.7596C16.6435 16.6444 16.6826 16.4969 16.7977 16.4301C17.5672 15.983 18.1718 15.2781 18.5001 14.4452C18.5489 14.3213 18.6889 14.2605 18.8127 14.3094C18.9366 14.3582 18.9974 14.4982 18.9485 14.622C18.5806 15.5554 17.9027 16.3455 17.0399 16.8469C17.0018 16.869 16.9601 16.8795 16.919 16.8795Z" fill="white"/>
<path d="M18.9481 13.9725C19.0812 13.9725 19.1891 13.8646 19.1891 13.7315C19.1891 13.5984 19.0812 13.4905 18.9481 13.4905C18.8149 13.4905 18.707 13.5984 18.707 13.7315C18.707 13.8646 18.8149 13.9725 18.9481 13.9725Z" fill="white"/>
<path d="M19.2848 15.6226C19.7515 14.829 19.9981 13.9204 19.9981 12.9948C19.9981 12.8617 19.8902 12.7538 19.7571 12.7538H11.1861L10.0447 11.6124C10.1514 11.4529 10.2087 11.2655 10.2087 11.0692C10.2087 10.8074 10.1067 10.5613 9.92157 10.3761L8.59522 9.04981C8.21305 8.66767 7.59123 8.66761 7.20903 9.04981L7.14112 9.11772C6.75895 9.49989 6.75895 10.1217 7.14112 10.5039L8.46747 11.8302C8.65261 12.0154 8.89875 12.1173 9.16054 12.1173C9.35683 12.1173 9.54428 12.06 9.70384 11.9533L10.5043 12.7538H9.85672C9.72361 12.7538 9.61569 12.8617 9.61569 12.9948C9.61569 13.9204 9.86237 14.829 10.329 15.6226C10.6476 16.1644 11.063 16.6435 11.55 17.0366H10.6442C10.5111 17.0366 10.4031 17.1445 10.4031 17.2776V17.3463C10.4031 18.0617 10.9852 18.6437 11.7006 18.6437H17.9131C18.6285 18.6437 19.2106 18.0617 19.2106 17.3463V17.2776C19.2106 17.1445 19.1027 17.0366 18.9695 17.0366H18.0638C18.5508 16.6435 18.9662 16.1644 19.2848 15.6226ZM9.16057 11.6353C9.02752 11.6353 8.90245 11.5835 8.80835 11.4894L7.482 10.163C7.28779 9.96883 7.28779 9.6528 7.482 9.45856L7.5499 9.39066C7.64702 9.29354 7.77457 9.24501 7.90212 9.24501C8.02967 9.24501 8.15722 9.29357 8.25434 9.39066L9.58069 10.717C9.67479 10.8111 9.72659 10.9362 9.72659 11.0692C9.72659 11.2023 9.67479 11.3274 9.58069 11.4214L9.51279 11.4894C9.41872 11.5835 9.29365 11.6353 9.16057 11.6353ZM17.9131 18.1616H11.7006C11.3102 18.1616 10.9829 17.8857 10.9036 17.5186H18.7102C18.6308 17.8857 18.3036 18.1616 17.9131 18.1616ZM17.2237 17.0366H12.3901C11.7132 16.6308 11.1449 16.0589 10.7446 15.3782C10.362 14.7277 10.1425 13.9916 10.1039 13.2359H19.5099C19.4714 13.9916 19.2518 14.7277 18.8692 15.3782C18.469 16.0589 17.9007 16.6308 17.2237 17.0366Z" fill="#333333"/>
<path d="M14.9783 11.6024C14.9783 11.7355 15.0862 11.8434 15.2193 11.8434C15.3524 11.8434 15.4604 11.7355 15.4604 11.6024C15.4604 10.7526 15.2368 10.324 15.0205 9.90957C14.8224 9.5299 14.6354 9.17132 14.6354 8.43976C14.6354 8.30665 14.5275 8.19873 14.3943 8.19873C14.2612 8.19873 14.1533 8.30665 14.1533 8.43976C14.1533 9.28949 14.3769 9.7181 14.5931 10.1326C14.7912 10.5122 14.9783 10.8708 14.9783 11.6024Z" fill="#333333"/>
<path d="M13.5711 11.6024C13.5711 11.7356 13.679 11.8435 13.8121 11.8435C13.9453 11.8435 14.0532 11.7356 14.0532 11.6024C14.0532 10.8355 13.8425 10.4316 13.6565 10.0753C13.4807 9.73818 13.3146 9.4198 13.3146 8.77106C13.3146 8.63794 13.2067 8.53003 13.0735 8.53003C12.9404 8.53003 12.8325 8.63794 12.8325 8.77106C12.8325 9.538 13.0432 9.9419 13.2292 10.2983C13.405 10.6353 13.5711 10.9537 13.5711 11.6024Z" fill="#333333"/>
<path d="M16.2991 11.6024C16.2991 11.7356 16.4071 11.8435 16.5402 11.8435C16.6733 11.8435 16.7812 11.7356 16.7812 11.6024C16.7812 10.8355 16.5705 10.4316 16.3846 10.0753C16.2087 9.73818 16.0426 9.4198 16.0426 8.77106C16.0426 8.63794 15.9347 8.53003 15.8016 8.53003C15.6685 8.53003 15.5605 8.63794 15.5605 8.77106C15.5605 9.538 15.7713 9.9419 15.9572 10.2983C16.1331 10.6353 16.2991 10.9537 16.2991 11.6024Z" fill="#333333"/>
</g>
<defs>
<clipPath id="clip0_56_6">
<rect width="13.1436" height="13.1436" fill="white" transform="translate(6.85498 6.84937)"/>
</clipPath>
</defs>
</svg>
