<svg width="245" height="52" viewBox="0 0 245 52" fill="none" xmlns="http://www.w3.org/2000/svg">
<path d="M12.9035 16.1291C14.6884 13.1604 17.8213 12.8975 20.3301 15.6417C23.8363 19.4769 27.3036 23.3526 30.6542 27.3239C31.8128 28.697 32.3762 28.6673 33.5214 27.3069C36.8678 23.3306 40.3478 19.4656 43.8342 15.6098C46.4426 12.7246 50.0647 13.2702 51.4283 16.6818C51.7888 20.3555 51.4898 24.0385 51.588 27.7157C51.6531 30.1439 51.4891 32.5748 51.6262 35.0022C51.6771 35.9021 51.458 36.8069 50.9342 37.5395C50.035 38.7971 48.7577 39.3285 47.1672 39.0883C45.2621 38.8014 43.8264 37.1647 43.7281 34.9512C43.6377 32.9071 43.7091 30.8559 43.2475 28.6595C40.6723 31.5446 38.0879 34.422 35.5233 37.317C33.1078 40.0442 30.7157 42.7918 28.3102 45.5282C21.8082 52.9259 11.8644 53.6522 5.18992 48.1384C2.02305 45.5218 0.289053 42.1634 0.308139 37.9504C0.343484 30.1311 0.294708 22.3118 0.322277 14.4931C0.349846 6.66813 6.0389 0.902822 13.8536 0.870938C25.947 0.821341 38.0412 0.821341 50.1347 0.870938C58.2081 0.90353 63.8413 6.64546 63.8498 14.7149C63.8575 22.0128 63.5359 29.3283 63.9374 36.6042C64.4831 46.5038 55.418 52.9139 46.3507 51.5493C42.7703 51.0101 39.7625 49.3656 37.1449 46.8836C36.2931 46.0759 35.9623 45.2263 36.175 44.1139C36.5603 42.1017 37.2516 40.2532 38.729 38.7433C39.3956 38.0617 39.8685 37.8484 40.5903 38.676C41.4399 39.6502 42.3787 40.5529 43.3337 41.4272C45.9131 43.788 49.7431 44.2422 52.7509 42.524C54.6164 41.4584 55.729 39.9563 55.7113 37.6415C55.652 29.9533 55.705 22.2636 55.6732 14.5753C55.659 11.1496 53.6126 9.05729 50.2167 9.0495C38.1232 9.01974 26.0297 9.0162 13.9356 9.05233C10.5722 9.06225 8.50947 11.2105 8.49463 14.6065C8.46353 21.9044 8.49675 29.2022 8.4607 36.5001C8.43596 41.5321 12.3422 44.5738 17.2685 43.3161C18.56 42.9867 20.3612 41.8991 21.2745 40.9256C22.8169 39.2825 24.3191 37.6011 25.8339 35.9318C26.2255 35.5003 26.6546 35.0859 26.0722 34.4453C24.3297 32.5288 22.6169 30.5839 20.8921 28.6503C20.6546 28.7403 20.6447 28.7445 20.4071 28.8345C20.4071 31.0012 20.5181 33.1757 20.376 35.3331C20.2332 37.5062 18.6244 38.9835 16.597 39.1089C14.8941 39.2138 13.6062 38.474 12.8816 37.0131C12.5486 36.3414 12.4271 35.5861 12.4695 34.8372C12.7346 30.1453 12.5034 25.4484 12.5607 20.7551C12.5797 19.2027 12.5889 17.6574 12.9042 16.1313L12.9035 16.1291Z" fill="#F48A00"/>
<path d="M92.6458 39.7327V11.8265H100.845L107.846 30.0632H107.962L114.963 11.8265H123.163V39.7327H116.916V22.2889H116.761L109.935 39.7327H105.874L99.047 22.2889H98.8922V39.7327H92.6458Z" fill="black"/>
<path d="M137.84 40.1775C131.168 40.1775 127.068 36.155 127.068 29.2123V29.1736C127.068 22.3469 131.304 18.2277 137.84 18.2277C144.396 18.2277 148.612 22.3083 148.612 29.1736V29.2123C148.612 36.1743 144.473 40.1775 137.84 40.1775ZM137.86 34.9753C140.2 34.9753 141.669 32.906 141.669 29.2123V29.1736C141.669 25.5379 140.161 23.4299 137.84 23.4299C135.52 23.4299 134.03 25.5379 134.03 29.1736V29.2123C134.03 32.9254 135.481 34.9753 137.86 34.9753Z" fill="black"/>
<path d="M152.054 39.7327V18.6725H158.919V22.405H159.054C159.634 19.7362 161.298 18.2277 163.773 18.2277C164.431 18.2277 165.03 18.3244 165.552 18.4985V24.3582C164.972 24.1261 164.179 23.9714 163.367 23.9714C160.485 23.9714 158.919 25.5572 158.919 28.5548V39.7327H152.054Z" fill="black"/>
<path d="M174.215 40.0228C169.98 40.0228 167.099 37.3347 167.099 33.6603V33.6409C167.099 29.6764 170.154 27.4524 175.588 27.085L180.384 26.7756V25.7313C180.384 24.2035 179.398 23.2559 177.484 23.2559C175.646 23.2559 174.563 24.1068 174.331 25.1898L174.293 25.3832H168.124L168.143 25.1318C168.472 21.0319 171.972 18.2277 177.832 18.2277C183.498 18.2277 187.23 21.0899 187.23 25.3638V39.7327H180.384V36.7545H180.249C179.05 38.8238 176.961 40.0228 174.215 40.0228ZM173.828 33.2155C173.828 34.5305 174.931 35.2847 176.613 35.2847C178.818 35.2847 180.384 33.9697 180.384 32.1905V30.7787L176.691 31.0302C174.776 31.1462 173.828 31.9391 173.828 33.1961V33.2155Z" fill="black"/>
<path d="M191.465 39.7327V11.8265H198.311V26.6595H198.446L204.48 18.6725H212.119L204.693 27.6845L212.564 39.7327H204.673L199.549 31.765L198.311 33.2541V39.7327H191.465Z" fill="black"/>
<path d="M223.664 40.1775C216.992 40.1775 212.892 36.155 212.892 29.2123V29.1736C212.892 22.3469 217.127 18.2277 223.664 18.2277C230.219 18.2277 234.435 22.3083 234.435 29.1736V29.2123C234.435 36.1743 230.297 40.1775 223.664 40.1775ZM223.683 34.9753C226.023 34.9753 227.493 32.906 227.493 29.2123V29.1736C227.493 25.5379 225.984 23.4299 223.664 23.4299C221.343 23.4299 219.854 25.5379 219.854 29.1736V29.2123C219.854 32.9254 221.304 34.9753 223.683 34.9753Z" fill="black"/>
<path d="M240.99 40.1001C238.979 40.1001 237.374 38.495 237.374 36.4644C237.374 34.4532 238.979 32.848 240.99 32.848C243.021 32.848 244.626 34.4532 244.626 36.4644C244.626 38.495 243.021 40.1001 240.99 40.1001Z" fill="black"/>
</svg>
