<svg width="15" height="15" viewBox="0 0 15 15" fill="none" xmlns="http://www.w3.org/2000/svg">
<path d="M6.69608 1.72673C7.0255 1.17935 7.81908 1.17935 8.1485 1.72673L9.79453 4.46187C9.91287 4.65851 10.1059 4.79876 10.3295 4.85055L13.4394 5.57081C14.0618 5.71495 14.307 6.4697 13.8882 6.95214L11.7956 9.36281C11.6452 9.53613 11.5714 9.76306 11.5913 9.99171L11.8673 13.172C11.9225 13.8085 11.2805 14.2749 10.6923 14.0257L7.75292 12.7804C7.54159 12.6909 7.30299 12.6909 7.09166 12.7804L4.15232 14.0257C3.56407 14.2749 2.92205 13.8085 2.97729 13.172L3.25329 9.99171C3.27314 9.76306 3.1994 9.53613 3.04895 9.36281L0.956338 6.95214C0.537543 6.4697 0.782773 5.71495 1.40516 5.57081L4.51508 4.85055C4.73867 4.79876 4.9317 4.65851 5.05005 4.46186L6.69608 1.72673Z" fill="#F5CF04" stroke="#F5CF04" stroke-width="1.05947"/>
</svg>
