<svg width="174" height="37" viewBox="0 0 174 37" fill="none" xmlns="http://www.w3.org/2000/svg">
<path d="M8.90452 11.1145C10.1664 9.01577 12.3812 8.82994 14.1548 10.7699C16.6335 13.4813 19.0848 16.2212 21.4535 19.0288C22.2726 19.9995 22.6709 19.9785 23.4805 19.0168C25.8463 16.2057 28.3065 13.4733 30.7712 10.7474C32.6153 8.70772 35.176 9.09341 36.14 11.5053C36.3948 14.1024 36.1834 16.7061 36.2529 19.3058C36.2989 21.0224 36.1829 22.741 36.2799 24.4571C36.3159 25.0932 36.161 25.7329 35.7907 26.2508C35.155 27.1399 34.2519 27.5156 33.1275 27.3458C31.7807 27.1429 30.7657 25.9858 30.6963 24.421C30.6323 22.9759 30.6828 21.5258 30.3565 19.973C28.5359 22.0127 26.7088 24.0468 24.8958 26.0935C23.1882 28.0215 21.497 29.964 19.7964 31.8985C15.1998 37.1284 8.1699 37.6418 3.45133 33.7438C1.21249 31.894 -0.0133828 29.5197 0.000110212 26.5413C0.0250973 21.0134 -0.00938504 15.4854 0.0101049 9.95797C0.0295949 4.42601 4.05152 0.350168 9.57617 0.327628C18.1258 0.292565 26.6759 0.292565 35.2254 0.327628C40.933 0.350669 44.9154 4.40998 44.9214 10.1147C44.9269 15.274 44.6996 20.4458 44.9834 25.5896C45.3692 32.5882 38.9605 37.1199 32.5503 36.1551C30.0191 35.7739 27.8927 34.6114 26.0422 32.8567C25.44 32.2857 25.2061 31.6851 25.3565 30.8987C25.6289 29.4761 26.1176 28.1693 27.1621 27.1018C27.6334 26.62 27.9677 26.4692 28.4779 27.0542C29.0786 27.743 29.7423 28.3811 30.4174 28.9993C32.241 30.6683 34.9486 30.9893 37.075 29.7746C38.3938 29.0213 39.1804 27.9594 39.1679 26.3229C39.1259 20.8876 39.1634 15.4514 39.1409 10.0161C39.1309 7.59421 37.6842 6.11505 35.2834 6.10954C26.7338 6.0885 18.1842 6.086 9.63414 6.11154C7.25637 6.11855 5.79812 7.63729 5.78763 10.0381C5.76564 15.1974 5.78912 20.3567 5.76364 25.516C5.74615 29.0734 8.50772 31.2238 11.9904 30.3347C12.9035 30.1017 14.1768 29.3329 14.8225 28.6446C15.9129 27.483 16.9749 26.2944 18.0458 25.1143C18.3227 24.8092 18.626 24.5162 18.2142 24.0634C16.9824 22.7084 15.7715 21.3334 14.5521 19.9665C14.3842 20.0301 14.3772 20.0331 14.2093 20.0967C14.2093 21.6285 14.2877 23.1657 14.1873 24.691C14.0863 26.2273 12.9489 27.2716 11.5157 27.3603C10.3118 27.4344 9.40126 26.9115 8.88903 25.8786C8.65365 25.4038 8.56769 24.8698 8.59768 24.3404C8.78508 21.0234 8.62166 17.7029 8.66214 14.3849C8.67564 13.2875 8.68213 12.195 8.90502 11.1161L8.90452 11.1145Z" fill="#F48A00"/>
<path d="M65.2791 27.8013V8.07281H71.0759L76.0251 20.9654H76.1072L81.0564 8.07281H86.8533V27.8013H82.4373V15.4693H82.3279L77.5017 27.8013H74.6306L69.8044 15.4693H69.6951V27.8013H65.2791ZM97.2297 28.1158C92.5129 28.1158 89.6144 25.272 89.6144 20.3638V20.3365C89.6144 15.5103 92.6086 12.5982 97.2297 12.5982C101.864 12.5982 104.845 15.483 104.845 20.3365V20.3638C104.845 25.2857 101.919 28.1158 97.2297 28.1158ZM97.2433 24.438C98.8976 24.438 99.9367 22.9752 99.9367 20.3638V20.3365C99.9367 17.7662 98.8703 16.2759 97.2297 16.2759C95.5891 16.2759 94.5363 17.7662 94.5363 20.3365V20.3638C94.5363 22.9888 95.5617 24.438 97.2433 24.438ZM107.278 27.8013V12.9127H112.131V15.5513H112.227C112.637 13.6646 113.813 12.5982 115.563 12.5982C116.028 12.5982 116.452 12.6666 116.821 12.7896V16.9322C116.411 16.7681 115.85 16.6588 115.276 16.6588C113.239 16.6588 112.131 17.7798 112.131 19.899V27.8013H107.278ZM122.945 28.0064C119.951 28.0064 117.914 26.106 117.914 23.5084V23.4947C117.914 20.692 120.074 19.1197 123.916 18.8599L127.307 18.6412V17.9029C127.307 16.8228 126.609 16.1529 125.256 16.1529C123.957 16.1529 123.191 16.7545 123.027 17.5201L123 17.6568H118.639L118.652 17.4791C118.885 14.5806 121.359 12.5982 125.502 12.5982C129.508 12.5982 132.147 14.6216 132.147 17.6431V27.8013H127.307V25.6959H127.211C126.363 27.1588 124.887 28.0064 122.945 28.0064ZM122.672 23.1939C122.672 24.1236 123.451 24.6568 124.641 24.6568C126.199 24.6568 127.307 23.7271 127.307 22.4693V21.4713L124.695 21.649C123.342 21.731 122.672 22.2916 122.672 23.1802V23.1939ZM135.14 27.8013V8.07281H139.98V18.5591H140.076L144.341 12.9127H149.742L144.492 19.2838L150.056 27.8013H144.478L140.855 22.1685L139.98 23.2213V27.8013H135.14ZM157.903 28.1158C153.186 28.1158 150.288 25.272 150.288 20.3638V20.3365C150.288 15.5103 153.282 12.5982 157.903 12.5982C162.538 12.5982 165.519 15.483 165.519 20.3365V20.3638C165.519 25.2857 162.593 28.1158 157.903 28.1158ZM157.917 24.438C159.571 24.438 160.61 22.9752 160.61 20.3638V20.3365C160.61 17.7662 159.544 16.2759 157.903 16.2759C156.263 16.2759 155.21 17.7662 155.21 20.3365V20.3638C155.21 22.9888 156.235 24.438 157.917 24.438ZM170.153 28.0611C168.731 28.0611 167.596 26.9263 167.596 25.4908C167.596 24.0689 168.731 22.9341 170.153 22.9341C171.588 22.9341 172.723 24.0689 172.723 25.4908C172.723 26.9263 171.588 28.0611 170.153 28.0611Z" fill="black"/>
</svg>
